<?xml version="1.0" encoding="UTF-8" standalone="no"?>
<!DOCTYPE svg PUBLIC "-//W3C//DTD SVG 1.1//EN"
 "http://www.w3.org/Graphics/SVG/1.1/DTD/svg11.dtd">
<!-- Generated by graphviz version 13.1.0 (20250701.0955)
 -->
<!-- Title: Dependencies Pages: 1 -->
<svg width="366pt" height="332pt"
 viewBox="0.00 0.00 366.00 332.00" xmlns="http://www.w3.org/2000/svg" xmlns:xlink="http://www.w3.org/1999/xlink">
<g id="graph0" class="graph" transform="scale(1 1) rotate(0) translate(4 328)">
<title>Dependencies</title>
<polygon fill="white" stroke="none" points="-4,4 -4,-328 361.88,-328 361.88,4 -4,4"/>
<!-- Application01 -->
<g id="node1" class="node">
<title>Application01</title>
<ellipse fill="lightgoldenrodyellow" stroke="lightgoldenrodyellow" cx="65.25" cy="-90" rx="63.63" ry="18"/>
<text xml:space="preserve" text-anchor="middle" x="65.25" y="-84.95" font-family="Times New Roman,serif" font-size="14.00">Application01</text>
</g>
<!-- Azure.Core -->
<g id="node2" class="node">
<title>Azure.Core</title>
<path fill="#e6f0ff" stroke="#e6f0ff" d="M73.75,-36C73.75,-36 18.75,-36 18.75,-36 12.75,-36 6.75,-30 6.75,-24 6.75,-24 6.75,-12 6.75,-12 6.75,-6 12.75,0 18.75,0 18.75,0 73.75,0 73.75,0 79.75,0 85.75,-6 85.75,-12 85.75,-12 85.75,-24 85.75,-24 85.75,-30 79.75,-36 73.75,-36"/>
<text xml:space="preserve" text-anchor="middle" x="46.25" y="-12.95" font-family="Times New Roman,serif" font-size="14.00">Azure.Core</text>
</g>
<!-- Application01&#45;&gt;Azure.Core -->
<g id="edge1" class="edge">
<title>Application01&#45;&gt;Azure.Core</title>
<path fill="none" stroke="black" d="M60.55,-71.7C58.53,-64.24 56.11,-55.32 53.84,-46.97"/>
<polygon fill="black" stroke="black" points="57.29,-46.3 51.29,-37.57 50.53,-48.13 57.29,-46.3"/>
</g>
<!-- Newtonsoft.Json -->
<g id="node3" class="node">
<title>Newtonsoft.Json</title>
<path fill="#e6f0ff" stroke="#e6f0ff" d="M198.62,-36C198.62,-36 115.88,-36 115.88,-36 109.88,-36 103.88,-30 103.88,-24 103.88,-24 103.88,-12 103.88,-12 103.88,-6 109.88,0 115.88,0 115.88,0 198.62,0 198.62,0 204.62,0 210.62,-6 210.62,-12 210.62,-12 210.62,-24 210.62,-24 210.62,-30 204.62,-36 198.62,-36"/>
<text xml:space="preserve" text-anchor="middle" x="157.25" y="-12.95" font-family="Times New Roman,serif" font-size="14.00">Newtonsoft.Json</text>
</g>
<!-- Application01&#45;&gt;Newtonsoft.Json -->
<g id="edge2" class="edge">
<title>Application01&#45;&gt;Newtonsoft.Json</title>
<path fill="none" stroke="black" d="M86.59,-72.76C98.12,-63.99 112.59,-52.98 125.43,-43.21"/>
<polygon fill="black" stroke="black" points="127.38,-46.13 133.22,-37.29 123.14,-40.56 127.38,-46.13"/>
</g>
<!-- Application02 -->
<g id="node4" class="node">
<title>Application02</title>
<ellipse fill="lightgoldenrodyellow" stroke="lightgoldenrodyellow" cx="240.25" cy="-306" rx="63.63" ry="18"/>
<text xml:space="preserve" text-anchor="middle" x="240.25" y="-300.95" font-family="Times New Roman,serif" font-size="14.00">Application02</text>
</g>
<!-- Swashbuckle.AspNetCore -->
<g id="node5" class="node">
<title>Swashbuckle.AspNetCore</title>
<path fill="#e6f0ff" stroke="#e6f0ff" d="M146.5,-252C146.5,-252 12,-252 12,-252 6,-252 0,-246 0,-240 0,-240 0,-228 0,-228 0,-222 6,-216 12,-216 12,-216 146.5,-216 146.5,-216 152.5,-216 158.5,-222 158.5,-228 158.5,-228 158.5,-240 158.5,-240 158.5,-246 152.5,-252 146.5,-252"/>
<text xml:space="preserve" text-anchor="middle" x="79.25" y="-228.95" font-family="Times New Roman,serif" font-size="14.00">Swashbuckle.AspNetCore</text>
</g>
<!-- Application02&#45;&gt;Swashbuckle.AspNetCore -->
<g id="edge3" class="edge">
<title>Application02&#45;&gt;Swashbuckle.AspNetCore</title>
<path fill="none" stroke="black" d="M206.5,-290.33C184.23,-280.64 154.66,-267.79 129.63,-256.9"/>
<polygon fill="black" stroke="black" points="131.17,-253.76 120.6,-252.98 128.38,-260.18 131.17,-253.76"/>
</g>
<!-- Application04 -->
<g id="node6" class="node">
<title>Application04</title>
<ellipse fill="lightgoldenrodyellow" stroke="lightgoldenrodyellow" cx="240.25" cy="-234" rx="63.63" ry="18"/>
<text xml:space="preserve" text-anchor="middle" x="240.25" y="-228.95" font-family="Times New Roman,serif" font-size="14.00">Application04</text>
</g>
<!-- Application02&#45;&gt;Application04 -->
<g id="edge4" class="edge">
<title>Application02&#45;&gt;Application04</title>
<path fill="none" stroke="blue" d="M240.25,-287.7C240.25,-280.41 240.25,-271.73 240.25,-263.54"/>
<polygon fill="blue" stroke="blue" points="243.75,-263.62 240.25,-253.62 236.75,-263.62 243.75,-263.62"/>
</g>
<!-- Application05 -->
<g id="node7" class="node">
<title>Application05</title>
<ellipse fill="lightgoldenrodyellow" stroke="lightgoldenrodyellow" cx="294.25" cy="-90" rx="63.63" ry="18"/>
<text xml:space="preserve" text-anchor="middle" x="294.25" y="-84.95" font-family="Times New Roman,serif" font-size="14.00">Application05</text>
</g>
<!-- Application02&#45;&gt;Application05 -->
<g id="edge5" class="edge">
<title>Application02&#45;&gt;Application05</title>
<path fill="none" stroke="blue" d="M272.94,-290.2C288.14,-281.44 304.71,-268.74 313.25,-252 335.07,-209.2 319.34,-151.89 306.44,-118.45"/>
<polygon fill="blue" stroke="blue" points="309.8,-117.44 302.8,-109.49 303.32,-120.07 309.8,-117.44"/>
</g>
<!-- Application03 -->
<g id="node8" class="node">
<title>Application03</title>
<ellipse fill="lightgoldenrodyellow" stroke="lightgoldenrodyellow" cx="111.25" cy="-162" rx="63.63" ry="18"/>
<text xml:space="preserve" text-anchor="middle" x="111.25" y="-156.95" font-family="Times New Roman,serif" font-size="14.00">Application03</text>
</g>
<!-- Application04&#45;&gt;Application03 -->
<g id="edge10" class="edge">
<title>Application04&#45;&gt;Application03</title>
<path fill="none" stroke="blue" d="M211.62,-217.46C193.42,-207.59 169.62,-194.67 149.77,-183.9"/>
<polygon fill="blue" stroke="blue" points="151.59,-180.91 141.13,-179.21 148.25,-187.06 151.59,-180.91"/>
</g>
<!-- RabbitMQ.Client -->
<g id="node9" class="node">
<title>RabbitMQ.Client</title>
<path fill="#e6f0ff" stroke="#e6f0ff" d="M291.88,-180C291.88,-180 204.62,-180 204.62,-180 198.62,-180 192.62,-174 192.62,-168 192.62,-168 192.62,-156 192.62,-156 192.62,-150 198.62,-144 204.62,-144 204.62,-144 291.88,-144 291.88,-144 297.88,-144 303.88,-150 303.88,-156 303.88,-156 303.88,-168 303.88,-168 303.88,-174 297.88,-180 291.88,-180"/>
<text xml:space="preserve" text-anchor="middle" x="248.25" y="-156.95" font-family="Times New Roman,serif" font-size="14.00">RabbitMQ.Client</text>
</g>
<!-- Application04&#45;&gt;RabbitMQ.Client -->
<g id="edge9" class="edge">
<title>Application04&#45;&gt;RabbitMQ.Client</title>
<path fill="none" stroke="black" d="M242.23,-215.7C243.06,-208.41 244.05,-199.73 244.99,-191.54"/>
<polygon fill="black" stroke="black" points="248.47,-191.94 246.12,-181.61 241.51,-191.15 248.47,-191.94"/>
</g>
<!-- Dapper -->
<g id="node10" class="node">
<title>Dapper</title>
<path fill="#e6f0ff" stroke="#e6f0ff" d="M310.12,-36C310.12,-36 278.38,-36 278.38,-36 272.38,-36 266.38,-30 266.38,-24 266.38,-24 266.38,-12 266.38,-12 266.38,-6 272.38,0 278.38,0 278.38,0 310.12,0 310.12,0 316.12,0 322.12,-6 322.12,-12 322.12,-12 322.12,-24 322.12,-24 322.12,-30 316.12,-36 310.12,-36"/>
<text xml:space="preserve" text-anchor="middle" x="294.25" y="-12.95" font-family="Times New Roman,serif" font-size="14.00">Dapper</text>
</g>
<!-- Application05&#45;&gt;Dapper -->
<g id="edge11" class="edge">
<title>Application05&#45;&gt;Dapper</title>
<path fill="none" stroke="black" d="M294.25,-71.7C294.25,-64.41 294.25,-55.73 294.25,-47.54"/>
<polygon fill="black" stroke="black" points="297.75,-47.62 294.25,-37.62 290.75,-47.62 297.75,-47.62"/>
</g>
<!-- Application03&#45;&gt;Application01 -->
<g id="edge7" class="edge">
<title>Application03&#45;&gt;Application01</title>
<path fill="none" stroke="blue" d="M100.11,-144.05C94.86,-136.06 88.47,-126.33 82.6,-117.4"/>
<polygon fill="blue" stroke="blue" points="85.53,-115.49 77.11,-109.05 79.68,-119.33 85.53,-115.49"/>
</g>
<!-- Application03&#45;&gt;Newtonsoft.Json -->
<g id="edge6" class="edge">
<title>Application03&#45;&gt;Newtonsoft.Json</title>
<path fill="none" stroke="black" d="M121.44,-143.84C127.08,-133.71 133.83,-120.46 138.25,-108 145.2,-88.4 150.03,-65.43 153.07,-47.73"/>
<polygon fill="black" stroke="black" points="156.52,-48.35 154.66,-37.92 149.61,-47.23 156.52,-48.35"/>
</g>
<!-- Application03&#45;&gt;Application05 -->
<g id="edge8" class="edge">
<title>Application03&#45;&gt;Application05</title>
<path fill="none" stroke="blue" d="M147.84,-147C176.3,-136.12 216,-120.93 246.88,-109.12"/>
<polygon fill="blue" stroke="blue" points="247.9,-112.48 255.99,-105.63 245.4,-105.94 247.9,-112.48"/>
</g>
</g>
</svg>
