<?xml version="1.0" encoding="UTF-8" standalone="no"?>
<!DOCTYPE svg PUBLIC "-//W3C//DTD SVG 1.1//EN"
 "http://www.w3.org/Graphics/SVG/1.1/DTD/svg11.dtd">
<!-- Generated by graphviz version 13.1.0 (20250701.0955)
 -->
<!-- Title: Dependencies Pages: 1 -->
<svg width="388pt" height="206pt"
 viewBox="0.00 0.00 388.00 206.00" xmlns="http://www.w3.org/2000/svg" xmlns:xlink="http://www.w3.org/1999/xlink">
<g id="graph0" class="graph" transform="scale(1 1) rotate(0) translate(4 202)">
<title>Dependencies</title>
<polygon fill="white" stroke="none" points="-4,4 -4,-202 383.59,-202 383.59,4 -4,4"/>
<!-- Application02 -->
<g id="node1" class="node">
<title>Application02</title>
<ellipse fill="none" stroke="black" cx="63.63" cy="-18" rx="63.63" ry="18"/>
<text xml:space="preserve" text-anchor="middle" x="63.63" y="-12.95" font-family="Times New Roman,serif" font-size="14.00">Application02</text>
</g>
<!-- Swashbuckle.AspNetCore -->
<g id="node2" class="node">
<title>Swashbuckle.AspNetCore</title>
<ellipse fill="none" stroke="black" cx="271.43" cy="-18" rx="108.16" ry="18"/>
<text xml:space="preserve" text-anchor="middle" x="271.43" y="-12.95" font-family="Times New Roman,serif" font-size="14.00">Swashbuckle.AspNetCore</text>
</g>
<!-- Application02&#45;&gt;Swashbuckle.AspNetCore -->
<g id="edge1" class="edge">
<title>Application02&#45;&gt;Swashbuckle.AspNetCore</title>
<path fill="none" stroke="black" d="M127.5,-18C135.22,-18 143.3,-18 151.51,-18"/>
<polygon fill="black" stroke="black" points="151.27,-21.5 161.27,-18 151.27,-14.5 151.27,-21.5"/>
</g>
<!-- Application03 -->
<g id="node3" class="node">
<title>Application03</title>
<ellipse fill="none" stroke="black" cx="63.63" cy="-72" rx="63.63" ry="18"/>
<text xml:space="preserve" text-anchor="middle" x="63.63" y="-66.95" font-family="Times New Roman,serif" font-size="14.00">Application03</text>
</g>
<!-- Newtonsoft.Json -->
<g id="node4" class="node">
<title>Newtonsoft.Json</title>
<ellipse fill="none" stroke="black" cx="271.43" cy="-72" rx="72.85" ry="18"/>
<text xml:space="preserve" text-anchor="middle" x="271.43" y="-66.95" font-family="Times New Roman,serif" font-size="14.00">Newtonsoft.Json</text>
</g>
<!-- Application03&#45;&gt;Newtonsoft.Json -->
<g id="edge2" class="edge">
<title>Application03&#45;&gt;Newtonsoft.Json</title>
<path fill="none" stroke="black" d="M127.5,-72C146.17,-72 166.93,-72 186.71,-72"/>
<polygon fill="black" stroke="black" points="186.71,-75.5 196.71,-72 186.71,-68.5 186.71,-75.5"/>
</g>
<!-- Application04 -->
<g id="node5" class="node">
<title>Application04</title>
<ellipse fill="none" stroke="black" cx="63.63" cy="-126" rx="63.63" ry="18"/>
<text xml:space="preserve" text-anchor="middle" x="63.63" y="-120.95" font-family="Times New Roman,serif" font-size="14.00">Application04</text>
</g>
<!-- RabbitMQ.Client -->
<g id="node6" class="node">
<title>RabbitMQ.Client</title>
<ellipse fill="none" stroke="black" cx="271.43" cy="-126" rx="75.92" ry="18"/>
<text xml:space="preserve" text-anchor="middle" x="271.43" y="-120.95" font-family="Times New Roman,serif" font-size="14.00">RabbitMQ.Client</text>
</g>
<!-- Application04&#45;&gt;RabbitMQ.Client -->
<g id="edge3" class="edge">
<title>Application04&#45;&gt;RabbitMQ.Client</title>
<path fill="none" stroke="black" d="M127.5,-126C145.3,-126 165,-126 183.93,-126"/>
<polygon fill="black" stroke="black" points="183.77,-129.5 193.77,-126 183.77,-122.5 183.77,-129.5"/>
</g>
<!-- Application05 -->
<g id="node7" class="node">
<title>Application05</title>
<ellipse fill="none" stroke="black" cx="63.63" cy="-180" rx="63.63" ry="18"/>
<text xml:space="preserve" text-anchor="middle" x="63.63" y="-174.95" font-family="Times New Roman,serif" font-size="14.00">Application05</text>
</g>
<!-- Dapper -->
<g id="node8" class="node">
<title>Dapper</title>
<ellipse fill="none" stroke="black" cx="271.43" cy="-180" rx="38.04" ry="18"/>
<text xml:space="preserve" text-anchor="middle" x="271.43" y="-174.95" font-family="Times New Roman,serif" font-size="14.00">Dapper</text>
</g>
<!-- Application05&#45;&gt;Dapper -->
<g id="edge4" class="edge">
<title>Application05&#45;&gt;Dapper</title>
<path fill="none" stroke="black" d="M127.5,-180C157.84,-180 193.67,-180 221.87,-180"/>
<polygon fill="black" stroke="black" points="221.55,-183.5 231.55,-180 221.55,-176.5 221.55,-183.5"/>
</g>
</g>
</svg>
